<svg width="12" height="9" viewBox="0 0 12 9" fill="none" xmlns="http://www.w3.org/2000/svg">
<path d="M1.71409 8.60147C3.89124 5.80651 8.11694 5.80651 10.2941 8.60147C10.3871 8.72151 10.4977 8.81679 10.6195 8.88182C10.7414 8.94684 10.8721 8.98032 11.0041 8.98032C11.1361 8.98032 11.2668 8.94684 11.3887 8.88182C11.5105 8.81679 11.6211 8.72151 11.7141 8.60147C11.8078 8.4824 11.8822 8.34074 11.933 8.18467C11.9838 8.02859 12.0099 7.86119 12.0099 7.69211C12.0099 7.52303 11.9838 7.35563 11.933 7.19955C11.8822 7.04348 11.8078 6.90182 11.7141 6.78276L6.71409 0.378853C6.62113 0.258807 6.51053 0.163524 6.38867 0.0985009C6.26681 0.0334774 6.1361 0 6.00409 0C5.87208 0 5.74137 0.0334774 5.61951 0.0985009C5.49766 0.163524 5.38705 0.258807 5.29409 0.378853L0.294092 6.78276C0.105788 7.02393 0 7.35104 0 7.69211C0 8.03319 0.105788 8.36029 0.294092 8.60147C0.482395 8.84264 0.73779 8.97813 1.00409 8.97813C1.27039 8.97813 1.52579 8.84264 1.71409 8.60147Z" fill="white"/>
</svg>
