<svg width="8" height="16" viewBox="0 0 8 16" fill="none" xmlns="http://www.w3.org/2000/svg">
<path d="M0.333681 2.19494C3.08944 5.24347 3.08944 9.89282 0.333681 12.9719C0.228036 13.0892 0.144183 13.2286 0.0869599 13.382C0.0297365 13.5354 0.000275088 13.6997 0.000275088 13.8655C0.000275088 14.0314 0.0297365 14.1954 0.0869599 14.3481C0.144183 14.5009 0.228036 14.6393 0.333681 14.7555C0.438463 14.8726 0.563126 14.9654 0.700478 15.0284C0.837831 15.0914 0.985154 15.1234 1.13395 15.1226C1.28275 15.1218 1.43007 15.0881 1.56742 15.0236C1.70477 14.9591 1.82944 14.8649 1.93422 14.7466L7.56991 8.43512C7.67556 8.31777 7.75941 8.17838 7.81664 8.025C7.87386 7.87162 7.90332 7.70729 7.90332 7.54147C7.90332 7.37566 7.87386 7.21165 7.81664 7.0589C7.75941 6.90616 7.67556 6.7677 7.56991 6.65152L1.93422 0.402472C1.72197 0.167128 1.43411 0.0358478 1.13395 0.037511C0.833791 0.0391743 0.545925 0.173645 0.333681 0.411341C0.121436 0.649037 0.0021991 0.970488 0.0021991 1.30498C0.0021991 1.63947 0.121436 1.9596 0.333681 2.19494Z" fill="#1189C4"/>
</svg>
