<svg width="8" height="18" viewBox="0 0 8 18" fill="none" xmlns="http://www.w3.org/2000/svg">
<path d="M6.81302 14.7289C4.20747 11.0808 4.17495 6.17598 6.73167 2.45788C6.82451 2.32365 6.89786 2.16446 6.94747 1.98949C6.99708 1.81452 7.02198 1.62723 7.02073 1.43843C7.01947 1.24963 6.9921 1.06305 6.94018 0.889457C6.88825 0.715861 6.81281 0.558691 6.71821 0.427008C6.62436 0.294219 6.51306 0.189318 6.39072 0.118361C6.26839 0.0474039 6.13744 0.0117949 6.00544 0.0135849C5.87343 0.015375 5.74298 0.0545286 5.62161 0.12879C5.50023 0.203052 5.39034 0.310953 5.29827 0.446263L0.3459 7.66503C0.253058 7.79925 0.179715 7.95844 0.130104 8.13341C0.0804931 8.30838 0.0555952 8.49567 0.0568467 8.68447C0.0580983 8.87328 0.0854745 9.05986 0.137396 9.23345C0.189318 9.40704 0.264757 9.56422 0.359363 9.6959L5.40654 16.7791C5.59662 17.0458 5.85301 17.1937 6.1193 17.19C6.38559 17.1864 6.63997 17.0317 6.82648 16.7598C7.01299 16.4879 7.11635 16.1212 7.11382 15.7404C7.1113 15.3595 7.0031 14.9957 6.81302 14.7289Z" fill="#A69595"/>
</svg>
