<svg width="13" height="15" viewBox="0 0 13 15" fill="none" xmlns="http://www.w3.org/2000/svg">
<path d="M3.575 2.05763C3.66054 2.05815 3.74534 2.04095 3.82454 2.00703C3.90373 1.9731 3.97576 1.92312 4.0365 1.85994L4.6865 1.17825C4.8089 1.04988 4.87766 0.875782 4.87766 0.694246C4.87766 0.512711 4.8089 0.33861 4.6865 0.210245C4.5641 0.0818803 4.3981 0.00976563 4.225 0.00976562C4.0519 0.00976562 3.8859 0.0818803 3.7635 0.210245L3.1135 0.891937C3.05258 0.955309 3.00422 1.0307 2.97122 1.11378C2.93822 1.19685 2.92123 1.28595 2.92123 1.37594C2.92123 1.46593 2.93822 1.55503 2.97122 1.6381C3.00422 1.72117 3.05258 1.79657 3.1135 1.85994C3.17424 1.92312 3.24627 1.9731 3.32546 2.00703C3.40465 2.04095 3.48946 2.05815 3.575 2.05763ZM6.175 2.05763C6.26054 2.05815 6.34534 2.04095 6.42454 2.00703C6.50373 1.9731 6.57576 1.92312 6.6365 1.85994L7.2865 1.17825C7.4089 1.04988 7.47766 0.875782 7.47766 0.694246C7.47766 0.512711 7.4089 0.33861 7.2865 0.210245C7.1641 0.0818803 6.9981 0.00976563 6.825 0.00976562C6.6519 0.00976563 6.4859 0.0818803 6.3635 0.210245L5.7135 0.891937C5.65258 0.955309 5.60422 1.0307 5.57122 1.11378C5.53822 1.19685 5.52123 1.28595 5.52123 1.37594C5.52123 1.46593 5.53822 1.55503 5.57122 1.6381C5.60422 1.72117 5.65258 1.79657 5.7135 1.85994C5.77424 1.92312 5.84627 1.9731 5.92546 2.00703C6.00465 2.04095 6.08946 2.05815 6.175 2.05763ZM8.775 2.05763C8.86054 2.05815 8.94534 2.04095 9.02454 2.00703C9.10373 1.9731 9.17576 1.92312 9.2365 1.85994L9.8865 1.17825C9.9471 1.11469 9.99518 1.03923 10.028 0.956186C10.0608 0.873141 10.0777 0.784134 10.0777 0.694246C10.0777 0.604359 10.0608 0.515352 10.028 0.432307C9.99518 0.349262 9.9471 0.273805 9.8865 0.210245C9.82589 0.146685 9.75395 0.0962669 9.67476 0.0618686C9.59558 0.0274702 9.51071 0.00976562 9.425 0.00976562C9.33929 0.00976563 9.25442 0.0274702 9.17524 0.0618686C9.09605 0.0962669 9.02411 0.146685 8.9635 0.210245L8.3135 0.891937C8.25258 0.955309 8.20422 1.0307 8.17122 1.11378C8.13822 1.19685 8.12123 1.28595 8.12123 1.37594C8.12123 1.46593 8.13822 1.55503 8.17122 1.6381C8.20422 1.72117 8.25258 1.79657 8.3135 1.85994C8.37424 1.92312 8.44627 1.9731 8.52546 2.00703C8.60466 2.04095 8.68946 2.05815 8.775 2.05763ZM10.348 9.97888C10.3338 9.93544 10.3141 9.89418 10.2895 9.85618L10.2115 9.75392L10.114 9.67212C10.0778 9.64632 10.0384 9.62569 9.997 9.61077C9.95829 9.59001 9.91655 9.57619 9.8735 9.56987C9.76907 9.54794 9.66111 9.55326 9.5591 9.58535C9.4571 9.61744 9.36417 9.67533 9.2885 9.75392C9.26055 9.78632 9.2345 9.82047 9.2105 9.85618C9.1859 9.89418 9.16623 9.93544 9.152 9.97888C9.13326 10.0175 9.12011 10.0589 9.113 10.1016C9.10981 10.147 9.10981 10.1925 9.113 10.2379C9.11372 10.4168 9.18142 10.5881 9.3015 10.7151C9.36162 10.781 9.43486 10.8322 9.516 10.8651C9.5901 10.8983 9.66945 10.9168 9.75 10.9196C9.92239 10.9196 10.0877 10.8478 10.2096 10.72C10.3315 10.5921 10.4 10.4187 10.4 10.2379C10.4032 10.1925 10.4032 10.147 10.4 10.1016C10.3888 10.0581 10.3713 10.0167 10.348 9.97888ZM11.544 6.90445L10.66 4.13679C10.5252 3.73679 10.275 3.39068 9.94429 3.1464C9.61353 2.90212 9.21853 2.77177 8.814 2.77341H4.186C3.78147 2.77177 3.38646 2.90212 3.05571 3.1464C2.72496 3.39068 2.47484 3.73679 2.34 4.13679L1.456 6.90445C1.04021 7.01864 0.672046 7.2737 0.408739 7.62998C0.145433 7.98625 0.0017398 8.42378 0 8.87454V11.6013C0.00113068 12.0232 0.126671 12.4345 0.35941 12.7786C0.592149 13.1228 0.920693 13.383 1.3 13.5237V14.3281C1.3 14.5089 1.36848 14.6823 1.49038 14.8101C1.61228 14.9379 1.77761 15.0098 1.95 15.0098C2.12239 15.0098 2.28772 14.9379 2.40962 14.8101C2.53152 14.6823 2.6 14.5089 2.6 14.3281V13.6464H10.4V14.3281C10.4 14.5089 10.4685 14.6823 10.5904 14.8101C10.7123 14.9379 10.8776 15.0098 11.05 15.0098C11.2224 15.0098 11.3877 14.9379 11.5096 14.8101C11.6315 14.6823 11.7 14.5089 11.7 14.3281V13.5237C12.0793 13.383 12.4079 13.1228 12.6406 12.7786C12.8733 12.4345 12.9989 12.0232 13 11.6013V8.87454C12.9983 8.42378 12.8546 7.98625 12.5913 7.62998C12.328 7.2737 11.9598 7.01864 11.544 6.90445ZM3.5685 4.56625C3.61211 4.43086 3.69518 4.31325 3.80599 4.23007C3.9168 4.14689 4.04973 4.10233 4.186 4.1027H8.814C8.95574 4.09494 9.09601 4.13606 9.21338 4.21976C9.33075 4.30346 9.41877 4.42516 9.464 4.56625L10.1465 6.82947H2.8535L3.5685 4.56625ZM11.7 11.6013C11.7 11.7821 11.6315 11.9555 11.5096 12.0833C11.3877 12.2112 11.2224 12.283 11.05 12.283H1.95C1.77761 12.283 1.61228 12.2112 1.49038 12.0833C1.36848 11.9555 1.3 11.7821 1.3 11.6013V8.87454C1.3 8.69375 1.36848 8.52036 1.49038 8.39251C1.61228 8.26467 1.77761 8.19285 1.95 8.19285H11.05C11.2224 8.19285 11.3877 8.26467 11.5096 8.39251C11.6315 8.52036 11.7 8.69375 11.7 8.87454V11.6013ZM7.15 9.55623H5.85C5.67761 9.55623 5.51228 9.62806 5.39038 9.7559C5.26848 9.88374 5.2 10.0571 5.2 10.2379C5.2 10.4187 5.26848 10.5921 5.39038 10.72C5.51228 10.8478 5.67761 10.9196 5.85 10.9196H7.15C7.32239 10.9196 7.48772 10.8478 7.60962 10.72C7.73152 10.5921 7.8 10.4187 7.8 10.2379C7.8 10.0571 7.73152 9.88374 7.60962 9.7559C7.48772 9.62806 7.32239 9.55623 7.15 9.55623ZM3.848 9.97888C3.83377 9.93544 3.8141 9.89418 3.7895 9.85618L3.7115 9.75392C3.62009 9.65934 3.50402 9.59526 3.37793 9.56978C3.25184 9.5443 3.12137 9.55857 3.003 9.61077C2.92321 9.64321 2.85032 9.69186 2.7885 9.75392C2.76055 9.78632 2.7345 9.82047 2.7105 9.85618C2.6859 9.89418 2.66623 9.93544 2.652 9.97888C2.62873 10.0167 2.61119 10.0581 2.6 10.1016C2.59681 10.147 2.59681 10.1925 2.6 10.2379C2.60054 10.3727 2.63918 10.5044 2.71105 10.6162C2.78292 10.7279 2.88477 10.8149 3.00375 10.8659C3.12272 10.917 3.25346 10.93 3.37944 10.9031C3.50541 10.8763 3.62097 10.8108 3.7115 10.7151C3.83158 10.5881 3.89928 10.4168 3.9 10.2379C3.90319 10.1925 3.90319 10.147 3.9 10.1016C3.88881 10.0581 3.87127 10.0167 3.848 9.97888Z" fill="white"/>
</svg>
