<svg width="12" height="16" viewBox="0 0 12 16" fill="none" xmlns="http://www.w3.org/2000/svg">
<path d="M6 0.00976562C4.4087 0.00976563 2.88258 0.684047 1.75736 1.88428C0.632141 3.08451 0 4.71236 0 6.40974C0 10.7297 5.2875 15.6097 5.5125 15.8177C5.64835 15.9417 5.82124 16.0098 6 16.0098C6.17876 16.0098 6.35165 15.9417 6.4875 15.8177C6.75 15.6097 12 10.7297 12 6.40974C12 4.71236 11.3679 3.08451 10.2426 1.88428C9.11742 0.684047 7.5913 0.00976563 6 0.00976562ZM6 14.1297C4.4025 12.5297 1.5 9.08174 1.5 6.40974C1.5 5.13671 1.97411 3.91582 2.81802 3.01564C3.66193 2.11547 4.80653 1.60976 6 1.60976C7.19347 1.60976 8.33807 2.11547 9.18198 3.01564C10.0259 3.91582 10.5 5.13671 10.5 6.40974C10.5 9.08174 7.5975 12.5377 6 14.1297ZM6 3.20976C5.40666 3.20976 4.82664 3.39743 4.33329 3.74905C3.83994 4.10067 3.45542 4.60044 3.22836 5.18516C3.0013 5.76988 2.94189 6.41329 3.05764 7.03403C3.1734 7.65477 3.45912 8.22495 3.87868 8.67248C4.29824 9.12001 4.83279 9.42478 5.41473 9.54825C5.99667 9.67172 6.59987 9.60835 7.14805 9.36615C7.69623 9.12395 8.16476 8.7138 8.49441 8.18756C8.82405 7.66133 9 7.04264 9 6.40974C9 5.56105 8.68393 4.74712 8.12132 4.14701C7.55871 3.5469 6.79565 3.20976 6 3.20976Z" fill="white"/>
</svg>
