<svg width="18" height="23" viewBox="0 0 18 23" fill="none" xmlns="http://www.w3.org/2000/svg">
<path d="M15.8626 14.1698C15.6468 14.1269 15.4349 14.0133 15.2289 13.9213C14.8112 13.7379 14.4073 13.5246 14.0204 13.2828C13.5984 13.0267 13.0966 12.9356 12.6115 13.0272C12.1264 13.1188 11.6923 13.3866 11.3928 13.779L11.0891 14.1773C10.2398 13.4557 9.49347 12.6208 8.87115 11.6962C8.2556 10.767 7.77049 9.75777 7.42941 8.69668L7.89602 8.50414C8.37326 8.37786 8.78693 8.07955 9.05744 7.66661C9.32794 7.25366 9.43617 6.75526 9.3613 6.26732C9.28912 5.81696 9.24685 5.36231 9.23476 4.90636C9.22871 4.68083 9.23442 4.44745 9.24993 4.21602C9.26846 3.50149 9.03126 2.80382 8.58105 2.24866C8.13084 1.69349 7.4972 1.31732 6.79425 1.18787L3.85207 0.601724C3.4302 0.513552 2.99428 0.517315 2.57399 0.612755C2.1537 0.708195 1.75891 0.893072 1.4165 1.1548C1.07408 1.41653 0.79208 1.74896 0.589688 2.12947C0.387296 2.50998 0.269267 2.92964 0.243636 3.35986C-0.0524201 7.57259 1.06347 11.7639 3.41506 15.2717C5.76664 18.7795 9.21987 21.4039 13.2293 22.7303L13.602 22.8046C14.3249 22.9497 15.0761 22.8235 15.7119 22.45C16.0774 22.2343 16.3931 21.9435 16.6379 21.5968C16.8827 21.2501 17.0512 20.8554 17.1322 20.4387L17.7184 17.4965C17.8421 16.8129 17.7247 16.1076 17.3862 15.5009C17.0478 14.8942 16.5093 14.4237 15.8626 14.1698ZM15.1807 20.1519C15.1527 20.2911 15.0955 20.4228 15.0127 20.5382C14.93 20.6535 14.8236 20.75 14.7007 20.821C14.5725 20.8944 14.4302 20.9399 14.2832 20.9545C14.1362 20.9692 13.9878 20.9526 13.8476 20.906C10.2685 19.7033 7.19166 17.3434 5.10236 14.1983C3.01305 11.0533 2.03021 7.30224 2.30887 3.53678C2.32188 3.39001 2.36452 3.2474 2.43419 3.11758C2.50387 2.98775 2.59915 2.8734 2.71427 2.78143C2.82701 2.69512 2.95684 2.63382 3.09512 2.60159C3.2334 2.56936 3.37696 2.56695 3.51624 2.59452L6.45842 3.18066C6.6875 3.22102 6.89534 3.33998 7.04617 3.51705C7.197 3.69412 7.28139 3.91824 7.2848 4.15082C7.27062 4.4267 7.26691 4.70126 7.27365 4.97451C7.28395 5.51407 7.33351 6.05216 7.42194 6.58452L5.92193 6.94845C5.7938 6.97893 5.67296 7.03441 5.56633 7.11172C5.45971 7.18903 5.36941 7.28663 5.30061 7.39894C5.23181 7.51124 5.18587 7.63603 5.16544 7.76613C5.145 7.89624 5.15046 8.0291 5.18151 8.15708C5.99066 11.4616 7.93679 14.3761 10.6789 16.3898C10.8982 16.5355 11.166 16.5889 11.4243 16.5383C11.5553 16.519 11.6812 16.4737 11.7946 16.4053C11.908 16.3369 12.0067 16.2466 12.0849 16.1397L12.9665 14.8878C13.4374 15.1702 13.9248 15.4239 14.4262 15.6477C14.676 15.7586 14.931 15.8604 15.1912 15.953C15.4048 16.0453 15.5794 16.2092 15.6852 16.4163C15.7909 16.6235 15.8211 16.8611 15.7706 17.0881L15.1807 20.1519Z" fill="#2B3F6C"/>
</svg>
