<svg width="35" height="30" viewBox="0 0 35 30" fill="none" xmlns="http://www.w3.org/2000/svg">
<path d="M33.25 12.3529H31.5V10.5882C31.5 10.1202 31.3156 9.67135 30.9874 9.3404C30.6593 9.00945 30.2141 8.82353 29.75 8.82353C29.2859 8.82353 28.8407 9.00945 28.5126 9.3404C28.1844 9.67135 28 10.1202 28 10.5882V12.3529H26.25C25.7859 12.3529 25.3407 12.5389 25.0126 12.8698C24.6844 13.2008 24.5 13.6496 24.5 14.1176C24.5 14.5857 24.6844 15.0345 25.0126 15.3655C25.3407 15.6964 25.7859 15.8824 26.25 15.8824H28V17.6471C28 18.1151 28.1844 18.5639 28.5126 18.8949C28.8407 19.2258 29.2859 19.4118 29.75 19.4118C30.2141 19.4118 30.6593 19.2258 30.9874 18.8949C31.3156 18.5639 31.5 18.1151 31.5 17.6471V15.8824H33.25C33.7141 15.8824 34.1592 15.6964 34.4874 15.3655C34.8156 15.0345 35 14.5857 35 14.1176C35 13.6496 34.8156 13.2008 34.4874 12.8698C34.1592 12.5389 33.7141 12.3529 33.25 12.3529ZM19.775 15.3882C20.7088 14.5732 21.4577 13.5651 21.971 12.4324C22.4843 11.2997 22.75 10.0689 22.75 8.82353C22.75 6.48338 21.8281 4.23908 20.1872 2.58435C18.5462 0.929619 16.3206 0 14 0C11.6794 0 9.45376 0.929619 7.81282 2.58435C6.17187 4.23908 5.25 6.48338 5.25 8.82353C5.24999 10.0689 5.51565 11.2997 6.02897 12.4324C6.54229 13.5651 7.29124 14.5732 8.225 15.3882C5.77524 16.5069 3.69681 18.3133 2.23822 20.5915C0.779617 22.8698 0.00257575 25.5235 0 28.2353C0 28.7033 0.184374 29.1522 0.512563 29.4831C0.840752 29.8141 1.28587 30 1.75 30C2.21413 30 2.65925 29.8141 2.98744 29.4831C3.31563 29.1522 3.5 28.7033 3.5 28.2353C3.5 25.4271 4.60625 22.734 6.57538 20.7483C8.54451 18.7626 11.2152 17.6471 14 17.6471C16.7848 17.6471 19.4555 18.7626 21.4246 20.7483C23.3938 22.734 24.5 25.4271 24.5 28.2353C24.5 28.7033 24.6844 29.1522 25.0126 29.4831C25.3407 29.8141 25.7859 30 26.25 30C26.7141 30 27.1593 29.8141 27.4874 29.4831C27.8156 29.1522 28 28.7033 28 28.2353C27.9974 25.5235 27.2204 22.8698 25.7618 20.5915C24.3032 18.3133 22.2248 16.5069 19.775 15.3882ZM14 14.1176C12.9616 14.1176 11.9466 13.8072 11.0833 13.2254C10.2199 12.6437 9.54699 11.8169 9.14963 10.8495C8.75227 9.88213 8.6483 8.81766 8.85088 7.7907C9.05345 6.76374 9.55346 5.82042 10.2877 5.08002C11.0219 4.33963 11.9574 3.83541 12.9758 3.63114C13.9942 3.42686 15.0498 3.5317 16.0091 3.9324C16.9684 4.3331 17.7883 5.01166 18.3652 5.88228C18.9421 6.75289 19.25 7.77645 19.25 8.82353C19.25 10.2276 18.6969 11.5742 17.7123 12.567C16.7277 13.5599 15.3924 14.1176 14 14.1176Z" fill="#ABABAB"/>
</svg>
